<svg xmlns="http://www.w3.org/2000/svg" width="512" height="320" viewBox="0 0 512 320">
  <rect width="100%" height="100%" fill="white"/>
  <g stroke="#B6491F" stroke-width="10" stroke-linecap="round" stroke-linejoin="round" fill="none">
    <!-- center horizontal segments -->
    <line x1="72"  y1="160" x2="88"  y2="160"/>
    <line x1="104" y1="160" x2="120" y2="160"/>
    <line x1="136" y1="160" x2="152" y2="160"/>
    <line x1="168" y1="160" x2="184" y2="160"/>
    <line x1="200" y1="160" x2="216" y2="160"/>
    <line x1="232" y1="160" x2="248" y2="160"/>
    <line x1="264" y1="160" x2="280" y2="160"/>
    <line x1="296" y1="160" x2="312" y2="160"/>
    <line x1="328" y1="160" x2="344" y2="160"/>
    <line x1="360" y1="160" x2="376" y2="160"/>
    <line x1="392" y1="160" x2="408" y2="160"/>
    <line x1="424" y1="160" x2="440" y2="160"/>
    <!-- vertical waveform bars -->
    <line x1="88"  y1="150" x2="88"  y2="170"/>
    <line x1="104" y1="130" x2="104" y2="190"/>
    <line x1="120" y1="110" x2="120" y2="210"/>
    <line x1="136" y1="95"  x2="136" y2="225"/>
    <line x1="152" y1="120" x2="152" y2="200"/>
    <line x1="168" y1="70"  x2="168" y2="250"/>
    <line x1="184" y1="45"  x2="184" y2="275"/>
    <line x1="200" y1="90"  x2="200" y2="230"/>
    <line x1="216" y1="25"  x2="216" y2="295"/>
    <line x1="232" y1="55"  x2="232" y2="265"/>
    <line x1="248" y1="35"  x2="248" y2="285"/>
    <line x1="264" y1="50"  x2="264" y2="270"/>
    <line x1="280" y1="65"  x2="280" y2="255"/>
    <line x1="296" y1="80"  x2="296" y2="240"/>
    <line x1="312" y1="75"  x2="312" y2="245"/>
    <line x1="328" y1="70"  x2="328" y2="250"/>
    <line x1="344" y1="85"  x2="344" y2="235"/>
    <line x1="360" y1="110" x2="360" y2="210"/>
    <line x1="376" y1="120" x2="376" y2="200"/>
    <line x1="392" y1="130" x2="392" y2="190"/>
    <line x1="408" y1="145" x2="408" y2="175"/>
  </g>
</svg>
